<svg id="Layer_1" data-name="Layer 1" xmlns="http://www.w3.org/2000/svg" viewBox="0 0 134.28 31.84"><defs><style>.cls-1{fill:#231f20;}.cls-2{fill:#219c48;}</style></defs><path class="cls-1" d="M114.61,211.24V190.56h0l11.05,15.66-1.68-.38,11-15.28h0v20.68h-3.91V199.39l.24,2L124.68,211h-.06l-6.91-9.56.68-1.86v11.69Z" transform="translate(-84.65 -185.34)"/><path class="cls-1" d="M144.55,211.56a6.62,6.62,0,0,1-3-.66,4.9,4.9,0,0,1-2.12-2,6.91,6.91,0,0,1-.79-3.51,7,7,0,0,1,.81-3.45,6,6,0,0,1,2.14-2.26,5.33,5.33,0,0,1,2.81-.79,4.92,4.92,0,0,1,2.65.58,6.16,6.16,0,0,1,1.5,1.28l-.16.46.35-1.73h3.51v11.8h-3.78v-2.57l.3.81s-.14.11-.32.31a5.5,5.5,0,0,1-.8.73,4.86,4.86,0,0,1-1.3.73A4.78,4.78,0,0,1,144.55,211.56Zm1.08-3.07a3.4,3.4,0,0,0,1.22-.21,2.63,2.63,0,0,0,.94-.59,3.57,3.57,0,0,0,.7-1v-2.89a2.62,2.62,0,0,0-.65-1,3.07,3.07,0,0,0-1-.65,3.73,3.73,0,0,0-1.32-.23,2.83,2.83,0,0,0-1.5.42,3,3,0,0,0-1.1,1.15,3.65,3.65,0,0,0,0,3.38,3.18,3.18,0,0,0,1.15,1.18A2.91,2.91,0,0,0,145.63,208.49Z" transform="translate(-84.65 -185.34)"/><path class="cls-1" d="M163.56,211.56a5.75,5.75,0,0,1-2.07-.39,4.32,4.32,0,0,1-1.68-1.12l.1-1.11v8h-3.75V199.17h3.24l.54,2.3-.3-.81a8.26,8.26,0,0,1,2.06-1.3,6.27,6.27,0,0,1,2.61-.51,5.62,5.62,0,0,1,2.95.77,5.4,5.4,0,0,1,2,2.21,7.57,7.57,0,0,1,.74,3.47,6.49,6.49,0,0,1-.84,3.4,5.41,5.41,0,0,1-2.29,2.13A7.37,7.37,0,0,1,163.56,211.56Zm-.76-3a3.57,3.57,0,0,0,1.69-.4,3.19,3.19,0,0,0,1.24-1.15,3,3,0,0,0,.47-1.69,3.61,3.61,0,0,0-.41-1.74,3.1,3.1,0,0,0-1.14-1.16,3.06,3.06,0,0,0-1.58-.42,4.13,4.13,0,0,0-1.33.2,3.21,3.21,0,0,0-1,.6,3.64,3.64,0,0,0-.77,1v2.89a3,3,0,0,0,.62,1,2.61,2.61,0,0,0,1,.66A3.2,3.2,0,0,0,162.8,208.59Z" transform="translate(-84.65 -185.34)"/><path class="cls-2" d="M173.63,191.37h3.91v16.09h9.35v3.78H173.63Z" transform="translate(-84.65 -185.34)"/><path class="cls-2" d="M189.4,205.19a6.22,6.22,0,0,1,.85-3.24,6,6,0,0,1,2.39-2.25,7.33,7.33,0,0,1,3.53-.83,7.12,7.12,0,0,1,3.51.83A5.83,5.83,0,0,1,202,202a7.06,7.06,0,0,1,0,6.49,5.86,5.86,0,0,1-2.29,2.29,7.21,7.21,0,0,1-3.56.83,7.76,7.76,0,0,1-3.47-.75,5.75,5.75,0,0,1-2.39-2.19A6.47,6.47,0,0,1,189.4,205.19Zm3.8,0a3.65,3.65,0,0,0,.38,1.66,3,3,0,0,0,1,1.17,2.56,2.56,0,0,0,1.46.44,2.67,2.67,0,0,0,1.53-.44,2.72,2.72,0,0,0,1-1.17,4.16,4.16,0,0,0,0-3.34,2.81,2.81,0,0,0-1-1.16,2.75,2.75,0,0,0-1.53-.43,2.63,2.63,0,0,0-1.46.43,3.12,3.12,0,0,0-1,1.16A3.65,3.65,0,0,0,193.2,205.22Z" transform="translate(-84.65 -185.34)"/><path class="cls-2" d="M211.83,217.18a8.31,8.31,0,0,1-2.68-.38,7.1,7.1,0,0,1-1.85-.92q-.77-.54-1.35-1l2.21-2.59a11.66,11.66,0,0,0,1.45,1.09,4,4,0,0,0,2.17.53,4.34,4.34,0,0,0,1.66-.32,2.85,2.85,0,0,0,1.24-.9,2.28,2.28,0,0,0,.47-1.48v-2.6l.14.68a3.88,3.88,0,0,1-1.57,1.61,5.73,5.73,0,0,1-3,.68,5.59,5.59,0,0,1-2.95-.82,6.16,6.16,0,0,1-2.18-2.24,6.4,6.4,0,0,1-.81-3.23,6.32,6.32,0,0,1,.87-3.31,6.52,6.52,0,0,1,2.24-2.28,5.59,5.59,0,0,1,2.91-.83,7.09,7.09,0,0,1,2.66.44,4.28,4.28,0,0,1,1.69,1.1l-.13.35.4-1.3h3.49v11.8a5.06,5.06,0,0,1-1,3.06,6.71,6.71,0,0,1-2.58,2.11A8.14,8.14,0,0,1,211.83,217.18Zm-3.21-12a3.39,3.39,0,0,0,.43,1.71,3.11,3.11,0,0,0,1.18,1.18,3.22,3.22,0,0,0,1.66.44,4.27,4.27,0,0,0,1.39-.21,3.34,3.34,0,0,0,1.08-.59,3.26,3.26,0,0,0,.79-1v-2.89a2.68,2.68,0,0,0-.72-1,3.78,3.78,0,0,0-1.12-.65,4.27,4.27,0,0,0-1.42-.23,3.3,3.3,0,0,0-1.66.42,3.1,3.1,0,0,0-1.18,1.15A3.2,3.2,0,0,0,208.62,205.16Z" transform="translate(-84.65 -185.34)"/><path class="cls-2" d="M102.53,189.21A10.39,10.39,0,0,0,99,186.39a10.34,10.34,0,0,0-12.27,2.42,8.54,8.54,0,0,0-1,9.82l9.17,16.58,8.45-16.71A8.65,8.65,0,0,0,102.53,189.21Zm-8,9.4a4.34,4.34,0,1,1,4.34-4.34A4.34,4.34,0,0,1,94.5,198.61Z" transform="translate(-84.65 -185.34)"/></svg>